# xmcd CD database file
#
# Track frame offsets:
#	150
#	17640
#	33717
#	53636
#	71228
#	92683
#	109983
#	128390
#	147154
#	167744
#
# Disc length: 2511 seconds
#
# Revision: 5
# Processed by: cddbd v1.5.1PL2 Copyright (c) Steve Scherf et al.
# Submitted via: CDex 1.70beta1
#
DISCID=8509cd0a
DTITLE=Beverley Craven - Love Scenes
DYEAR=1993
DGENRE=New Age
TTITLE0=Love Scenes
TTITLE1=Love Is The Light
TTITLE2=hopH
TTITLE3=Look No Further
TTITLE4=Mollie's Song
TTITLE5=On Those Days
TTITLE6=Feels Like The First Time
TTITLE7=Blind Faith
TTITLE8=Lost Without You
TTITLE9=The Winner Takes It All
EXTD=YEAR: 1993
EXTT0=
EXTT1=
EXTT2=
EXTT3=
EXTT4=
EXTT5=
EXTT6=
EXTT7=
EXTT8=
EXTT9=Recorded for the 20th anniversary ABBA tribute album.\n
PLAYORDER=
